<svg class="logo" xmlns="http://www.w3.org/2000/svg" width="686" height="150" viewBox="0 0 1000 220">

  <!-- N -->
  <path class="nanimated" style="fill:#9A3728;" d="M214.347,172.042V47.946h24.931l67.351,80.002V47.946h28.652v124.096h-24.931l-67.35-80.374v80.374
		H214.347z"></path>

  <!-- V -->
	<path class="vanimated" style="fill:#9A3728;" d="M384.215,47.946l31.443,79.444l31.442-79.444h30.884l-52.652,124.096h-19.349L353.331,47.946
		H384.215z"></path>

  <!-- Dems -->
  <g class="dems animated">
    <path style="fill:#1F5380;" d="M535.292,47.946c16.373,0,33.676,2.419,48.932,17.117c10.977,10.605,17.861,25.117,17.861,44.466
  		c0,19.536-6.698,33.675-16.931,43.908c-17.117,17.303-38.513,18.605-48.932,18.605h-40.187V47.946H535.292z M524.688,147.855h7.628
  		c5.954,0,18.978-0.558,28.28-8.372c6.697-5.581,12.093-16.186,12.093-29.955c0-13.396-5.395-21.954-10.232-26.791
  		c-9.303-9.303-21.397-10.605-30.141-10.605h-7.628V147.855z"></path>
  	<path style="fill:#1F5380;" d="M697.347,72.132h-41.489v24H695.3v24.187h-39.442v27.536h41.489v24.187h-70.141V47.946h70.141
  		V72.132z"></path>
  	<path style="fill:#1F5380;" d="M718.56,172.042l19.907-124.096h23.814l30.884,74.234l30.885-74.234h23.814l19.907,124.096h-28.651
  		l-9.861-74.048l-31.07,74.048h-10.047l-31.07-74.048l-9.86,74.048H718.56z"></path>
  	<path style="fill:#1F5380;" d="M956.895,78.272c-9.303-8.372-17.303-8.93-20.838-8.93c-3.907,0-8.744,0.558-12.093,4.279
  		c-1.86,1.861-3.163,4.651-3.163,7.814c0,2.977,0.931,5.209,2.791,6.884c2.977,2.791,7.256,3.907,15.628,7.07l9.303,3.535
  		c5.396,2.046,12.093,4.837,16.931,9.488c7.256,6.884,9.116,15.814,9.116,23.07c0,12.837-4.465,24-10.977,30.698
  		c-10.978,11.535-26.978,12.651-35.164,12.651c-8.931,0-16.744-1.302-24.559-5.209c-6.325-3.163-13.582-8.931-18.232-13.582
  		l14.884-20.465c3.163,3.163,8.186,7.442,11.535,9.488c4.837,2.977,9.86,4.465,15.628,4.465c3.721,0,8.931-0.744,13.023-4.279
  		c2.419-2.046,4.466-5.395,4.466-10.046c0-4.093-1.675-6.698-4.279-8.931c-3.35-2.791-10.977-5.582-14.513-6.884l-10.232-3.535
  		c-5.768-2.047-12.465-4.651-17.303-9.861c-6.512-6.884-7.441-15.629-7.441-21.582c0-10.977,3.349-20.279,10.79-27.907
  		c8.745-8.931,19.164-11.349,30.698-11.349c8.559,0,22.326,1.488,36.839,12.279L956.895,78.272z"></path>
  </g>

  <!-- Nevada -->

  <polygon style="fill:#18476B;" points="126.225,83.479 123.833,71.23 123.827,71.225 		"></polygon>
  <path class="nevada" style="fill:#1F5380;" d="M80.444,119.781l41.371-59.501l39.928,33.368c-0.016-23.582-0.039-47.165-0.047-70.747
    c-44.737,0.012-89.47,0.019-134.209,0.016c0.007,29.518,0.007,59.039,0.018,88.555c6.908,6.18,13.831,12.344,20.768,18.492
    l9.302-23.982L80.444,119.781z"></path>
  <path class="nevada" style="fill:#9A3727;" d="M102.751,180.034C117.833,194.82,133.086,210,148.503,224h0.003l-0.027-0.459l-0.215-0.947
    l0.53-0.729l0.086-0.276l-0.088-0.384l-0.422-0.493l-0.106-0.259l0.077-0.364l0.226-0.088h0.304l0.314-0.086l0.266-0.137
    l0.099-0.087l0.208-1.099l0.016-0.583l-0.11-1.096l-0.293-1.314l-0.053-0.703l0.031-0.738l-0.217-0.651l-0.712-1.442l-0.414-1.322
    l-0.38-1.107l0.475-1.332l-0.136-1.197l0.172-0.602l-0.148-0.451l-0.793-2.004l-0.111-0.549l-0.068-0.762l0.027-1.532l0.123-0.41
    l0.394-0.708l0.086-0.303l-0.047-0.32l-0.145-0.247l-0.884-1.16l-0.324-0.634l-0.234-0.744l-0.041-0.766l0.377-0.394l0.104-0.304
    l-0.183-0.313L146,194.272v-0.32l0.229-0.23l0.17-0.13l0.205-0.215l0.114-0.096l0.109-0.094l0.759-0.353l0.735-0.46l1.307-0.339
    l0.355-0.149l0.189-0.04l0.211,0.026l1.205,0.35l0.086,0.041l0.124,0.075l0.191,0.147l0.234,0.153l0.298-0.284l0.173-0.354h0.167
    l0.15,0.354l0.13,0.141l0.579-0.252l0.121-0.008l0.134-0.021l0.149-0.009l0.155-0.009l0.149,0.024l0.21,0.074l0.199,0.128
    l0.248,0.252l0.214,0.283l0.167,0.269l0.504,1.128l0.212,0.345l0.283,0.346l0.409,0.347l0.517,0.226l0.582,0.032l1.107-0.184
    l0.787-0.445c0.294-1.035,0.595-2.067,0.894-3.101l0.419-0.572l0.456-0.623l0.052-0.273l0.021-0.267
    c0.05-26.161,0.052-52.322,0.039-78.483l-33.136-15.966l-2.393-12.253l-2.314-12.254L124,71.23v-0.005l37.835,32.864
    c-0.001-2.468-0.046-4.935-0.047-7.402l-39.2-32.534l-41.259,59.202L58.96,110.056l-8.476,21.858
    c6.4,5.668,12.808,11.392,19.232,17.033C80.693,159.329,91.701,169.733,102.751,180.034z M155.635,148.617l-36.585-10.318
    l-6.097-31.6L155.635,148.617z M60.908,119.275l16.332,9.028l-7.621,9.349L60.908,119.275z"></path>
  <path class="nevada" style="fill:#F0E8DE;" d="M126.225,83.479l2.398,12.253l33.13,15.966c-0.001-2.537-0.001-5.072-0.002-7.609L123.833,71.23
    L126.225,83.479z"></path>
  <path class="nevada" style="fill:#F0E8DE;" d="M58.955,110.056l22.363,13.225l41.249-59.165l39.179,32.569c0-1.012-0.002-2.026-0.002-3.038
    l-39.928-33.368l-41.371,59.501l-22.87-13.799l-9.302,23.982c0.735,0.652,1.474,1.3,2.209,1.951L58.955,110.056z"></path>

  <!-- Mountain Shadow -->
  <polygon class="nevada" style="fill:#F1E5D9;" points="126.225,83.479 128.618,95.732 161.753,111.698 161.753,111.698 128.623,95.732 		"></polygon>
  <polygon class="nevada" style="fill:#F1E5D9;" points="124,71.225 124,71.23 161.919,104.089 161.919,104.089 		"></polygon>
  <polygon class="nevada" style="fill:#F0E8DE;" points="60.908,119.275 69.619,137.652 77.24,128.303 		"></polygon>
  <polygon class="nevada" style="fill:#F0E8DE;" points="155.635,148.617 112.954,106.698 119.051,138.298 		"></polygon>

  <!-- Nevada Star -->
<polygon class="star animated" style="fill:#F0E8DE;" points="74.238,76.611 64.062,68.826 51.879,72.796 56.139,60.711 48.599,50.354 61.408,50.67
  68.929,40.299 72.586,52.577 84.775,56.526 74.225,63.799 	"></polygon>



</svg>